<?xml version="1.0" encoding="UTF-8"?>
<svg version="1.1" xmlns="http://www.w3.org/2000/svg" width="1146" height="503">
<path d="M0 0 C378.18 0 756.36 0 1146 0 C1146 165.99 1146 331.98 1146 503 C767.82 503 389.64 503 0 503 C0 337.01 0 171.02 0 0 Z " fill="#191818" transform="translate(0,0)"/>
<path d="M0 0 C38.61 0 77.22 0 117 0 C117.02578125 14.29828125 117.0515625 28.5965625 117.078125 43.328125 C117.10329226 52.38803452 117.12946148 61.44792281 117.16015625 70.5078125 C117.20868654 84.88704276 117.2531341 99.26620238 117.27099609 113.64550781 C117.28402454 124.11852915 117.31101981 134.59140669 117.35461307 145.06434703 C117.37720086 150.60695863 117.39291228 156.14939304 117.39188385 161.69205475 C117.39113567 166.91567374 117.40915029 172.13890143 117.44116783 177.36241913 C117.44964273 179.27307855 117.45143325 181.18378198 117.44580269 183.0944519 C117.41293539 195.96868499 117.49602721 208.62705125 127.0859375 218.44140625 C131.83479389 222.30833216 137.42072732 223.72841303 143.50390625 223.46484375 C150.84611832 222.09751474 157.434918 218.68189052 161.75 212.5 C165.23363249 205.70743046 165.15069596 198.07352308 163.484375 190.7265625 C160.59200577 183.02478862 153.93557458 179.46778729 147 176 C135.615 175.505 135.615 175.505 124 175 C124 136.39 124 97.78 124 58 C167.36956522 58 167.36956522 58 187 65 C188.01835938 65.33515625 189.03671875 65.6703125 190.0859375 66.015625 C199.79652284 69.42032406 208.33435579 74.540265 217 80 C217.58813477 80.36609375 218.17626953 80.7321875 218.78222656 81.109375 C232.46573026 89.72283123 244.35722061 101.04807491 254 114 C254.41088867 114.5465625 254.82177734 115.093125 255.24511719 115.65625 C260.82836177 123.11723009 265.80758665 130.64925796 270 139 C270.72703125 137.56720703 270.72703125 137.56720703 271.46875 136.10546875 C285.43679266 108.98668127 306.8512901 86.14233516 333.9375 71.875 C334.78860352 71.42592285 335.63970703 70.9768457 336.51660156 70.51416016 C341.49126238 67.99393623 346.39709476 66.10733694 351.77563477 64.63134766 C353.90526187 64.02688978 355.93613711 63.29720376 358 62.5 C370.2044581 58.51616135 382.55343877 57.72383134 395.3125 57.6875 C396.46790283 57.68210205 397.62330566 57.6767041 398.8137207 57.67114258 C424.16544238 57.87898802 452.70102099 65.36886488 473 81 C473.82113281 81.62519531 474.64226562 82.25039062 475.48828125 82.89453125 C478.03108708 84.88578749 480.51497775 86.93717229 483 89 C484.52947266 90.21623047 484.52947266 90.21623047 486.08984375 91.45703125 C498.93748634 101.79833361 508.52391326 113.90918065 517 128 C517.51433594 128.81339844 518.02867187 129.62679687 518.55859375 130.46484375 C523.06986188 138.39929637 525.93459093 147.41907593 529 156 C529.32484375 156.90621094 529.6496875 157.81242188 529.984375 158.74609375 C535.99605946 177.91600593 534.2765513 199.54605305 534.20278788 219.4089911 C534.19009607 223.41675245 534.18909575 227.4245184 534.18673706 231.43229675 C534.18057554 238.98585166 534.16423867 246.53934714 534.14403808 254.09287614 C534.11728048 264.32521223 534.10666328 274.55756512 534.09503365 284.78992748 C534.07635276 300.85999598 534.03647221 316.9299392 534 333 C496.38 333 458.76 333 420 333 C419.97421875 322.85378906 419.9484375 312.70757812 419.921875 302.25390625 C419.89670666 295.82354844 419.87053655 289.39322051 419.83984375 282.96289062 C419.79132018 272.75789603 419.74687006 262.55300087 419.72900391 252.34790039 C419.7159722 244.91498677 419.68896893 237.48227565 419.64538693 230.04947609 C419.62280608 226.11605495 419.60708728 222.18288326 419.60811615 218.24939156 C419.60886478 214.54168798 419.5908337 210.8345351 419.55883217 207.12697411 C419.54634557 205.12845047 419.55338139 203.1298342 419.56114197 201.13128662 C419.46792018 193.04265155 418.68435253 186.06626712 413.078125 179.87890625 C412.47484375 179.44449219 411.8715625 179.01007813 411.25 178.5625 C410.1396628 177.74374295 409.0476549 176.89756951 408 176 C408 175.34 408 174.68 408 174 C399.94149585 172.53481743 391.30700057 171.01503387 384.0625 175.5625 C379.3323202 179.18525113 375.90698743 183.27903771 374 189 C373.0986587 197.45973192 374.10129917 203.95569406 379 211 C383.04265079 215.8397932 386.58945451 216.39736363 393 218 C402.9 218.495 402.9 218.495 413 219 C413 256.62 413 294.24 413 333 C400.85880463 333 389.04733905 332.93204563 377 332 C375.30037109 331.88591797 375.30037109 331.88591797 373.56640625 331.76953125 C351.44412549 329.51215566 330.04332115 318.87656213 313 305 C312.4445752 304.55672363 311.88915039 304.11344727 311.31689453 303.65673828 C296.00288385 291.38417129 284.70742978 276.83843806 274.48046875 260.15234375 C273.17822234 257.88765955 273.17822234 257.88765955 271 257 C270.74476563 258.01449219 270.48953125 259.02898437 270.2265625 260.07421875 C267.21624966 270.56286566 259.99182689 279.83663706 253 288 C252.13247106 289.04942476 251.26667956 290.10028748 250.40234375 291.15234375 C247.65407676 294.48156113 244.84451972 297.7528078 242 301 C240.86498047 302.30130859 240.86498047 302.30130859 239.70703125 303.62890625 C223.55239226 320.95135047 200.33238446 331.3181785 178 338 C177.24895996 338.2273584 176.49791992 338.4547168 175.72412109 338.68896484 C164.06429504 342.03688665 152.35801534 342.407022 140.3125 342.5 C139.58159149 342.51062469 138.85068298 342.52124939 138.09762573 342.53219604 C126.85546135 342.65733868 116.8347816 340.90453236 106 338 C103.83489096 337.49329764 101.66852602 336.99187332 99.5 336.5 C94.33767554 335.18151443 89.76548076 333.36127425 85 331 C83.75795406 330.40335106 82.51575256 329.80702589 81.2734375 329.2109375 C69.90997623 323.70417541 59.62229485 317.8694138 50.3359375 309.18359375 C48.2532816 307.23676323 46.11975752 305.39542381 43.9375 303.5625 C19.86863021 282.38189459 7.09118457 253.04380834 2 222 C1.837614 221.31925258 1.675228 220.63850515 1.50792122 219.93712902 C-0.66761099 210.18519427 -0.26490685 200.3139781 -0.22705078 190.38208008 C-0.22648593 188.30166632 -0.22680466 186.22125215 -0.22793579 184.14083862 C-0.22850743 178.51973313 -0.21678368 172.89871374 -0.20278788 167.27762818 C-0.19024904 161.39331647 -0.18910753 155.50900258 -0.18673706 149.62467957 C-0.18053154 138.49378843 -0.1641333 127.36293678 -0.14403808 116.232063 C-0.11746046 101.18249518 -0.10669894 86.13291649 -0.09503365 71.08333111 C-0.07625204 47.38885785 -0.03640014 23.69446791 0 0 Z " fill="#FDFBF9" transform="translate(558,157)"/>
<path d="M0 0 C20.84413603 -0.02332712 41.68826992 -0.04097826 62.53241634 -0.05181217 C72.21001051 -0.05697553 81.88759658 -0.06401897 91.56518555 -0.07543945 C99.99700331 -0.08538509 108.42881521 -0.09185314 116.86063868 -0.09408849 C121.32807392 -0.09539581 125.7954924 -0.09848295 130.26292229 -0.10573006 C134.4628416 -0.11248838 138.66273713 -0.11461735 142.86266136 -0.11310768 C144.40868509 -0.11338409 145.95470956 -0.11539033 147.50072861 -0.11920547 C149.60235776 -0.1241398 151.70389572 -0.12299928 153.80552673 -0.12025452 C154.98449996 -0.12117631 156.16347319 -0.1220981 157.37817287 -0.12304783 C160 0 160 0 161 1 C161.09908014 2.48852676 161.12846546 3.98174559 161.13028526 5.4735651 C161.13390961 6.44597332 161.13753396 7.41838154 161.14126813 8.42025667 C161.14019988 9.5013524 161.13913163 10.58244812 161.13803101 11.69630432 C161.14085229 12.83490888 161.14367357 13.97351344 161.14658034 15.14662117 C161.1535024 18.32136586 161.15595433 21.49607932 161.15663147 24.67083037 C161.15846604 28.08954572 161.16607016 31.50824828 161.17311096 34.92695618 C161.18465499 40.85665796 161.19288986 46.78635687 161.19923019 52.71606636 C161.2095428 62.08994046 161.23010399 71.46377893 161.25234985 80.83763123 C161.25983034 84.04308784 161.267244 87.24854461 161.27463722 90.45400143 C161.27648779 91.25519069 161.27833835 92.05637995 161.280245 92.88184767 C161.3011875 102.00952583 161.32000708 111.13720795 161.33789062 120.26489258 C161.33952881 121.09960073 161.34116699 121.93430888 161.34285481 122.79431122 C161.36911965 136.31034413 161.38777282 149.82637978 161.40448253 163.34242738 C161.42190952 177.21456202 161.45076379 191.08664309 161.4893719 204.95873493 C161.51276369 213.51675673 161.52676574 222.07469117 161.52869953 230.6327452 C161.5308106 236.50155329 161.54375396 242.3702746 161.56517886 248.23904372 C161.57719507 251.62435447 161.58273372 255.0093473 161.57846642 258.3946991 C161.57457547 262.06825819 161.58901539 265.74130839 161.60800171 269.41481018 C161.59970717 271.01303119 161.59970717 271.01303119 161.59124506 272.64353949 C161.68756066 283.43742645 165.17554515 291.07060002 172.734375 298.765625 C179.99154328 305.380566 187.86838856 305.77100218 197.296875 305.50390625 C205.27403875 304.92040955 212.16625354 301.53491831 218.0546875 296.10546875 C219.65957617 294.14526891 220.83703692 292.24812229 222 290 C222.61101562 288.89205078 222.61101562 288.89205078 223.234375 287.76171875 C226.87262516 280.14880488 227.47629893 271.54856172 225.3046875 263.38671875 C224.36676713 261.1049713 223.30182486 259.09423999 222 257 C221.56429687 256.29101562 221.12859375 255.58203125 220.6796875 254.8515625 C217.24219853 249.79864156 213.38470117 246.80123241 208 244 C207.12190674 243.49202881 206.24381348 242.98405762 205.33911133 242.46069336 C201.48005699 240.77255107 198.65008566 240.58734284 194.44921875 240.5234375 C193.74980667 240.50785797 193.05039459 240.49227844 192.32978821 240.47622681 C190.11570198 240.42903134 187.90192729 240.40103224 185.6875 240.375 C183.45543622 240.33850719 181.22354924 240.29797118 178.99165344 240.25234985 C176.97984784 240.21276972 174.96782105 240.18495652 172.95581055 240.15771484 C170 240 170 240 169 239 C168.90318178 236.93705722 168.87813077 234.87073958 168.87974548 232.80552673 C168.87846385 231.82419253 168.87846385 231.82419253 168.87715632 230.82303339 C168.87549972 228.61498657 168.88102579 226.40701452 168.88647461 224.19897461 C168.88675647 222.62249249 168.88659877 221.04601024 168.8860321 219.4695282 C168.88574408 215.17632451 168.8916416 210.88314851 168.89860606 206.58995128 C168.90483879 202.10827317 168.90544333 197.62659449 168.90663147 193.14491272 C168.90974503 184.65219091 168.91795874 176.15948191 168.92798096 167.66676575 C168.93914134 158.00066461 168.94465236 148.33456288 168.94967639 138.66845691 C168.96014134 118.77896412 168.97774125 98.88948286 169 79 C173.46093662 78.99266748 177.92187166 78.98827272 182.3828125 78.984375 C184.26190308 78.98123291 184.26190308 78.98123291 186.17895508 78.97802734 C208.32263433 78.96354015 229.45451128 80.69243916 250.57421875 87.84375 C253.55386006 88.84942141 256.53231664 89.72658735 259.5625 90.5625 C262.49597499 91.42931982 264.99422803 92.44037009 267.625 94 C270.17937866 95.51370587 272.07993927 96.44778378 274.8125 97.375 C278.98114743 98.86609312 282.58499305 100.97684243 286.32421875 103.33203125 C288.21102389 104.5081857 290.13497449 105.62574639 292.08203125 106.69921875 C293.08621094 107.27285156 294.09039062 107.84648437 295.125 108.4375 C296.05570312 108.95183594 296.98640625 109.46617187 297.9453125 109.99609375 C300 112 300 112 300.390625 115.25390625 C299.99280242 119.06902476 299.39635784 122.7424945 298.625 126.5 C296.02741491 139.19930487 294.6082466 151.78035495 294.625 164.75 C294.62487915 165.40898285 294.6247583 166.0679657 294.62463379 166.74691772 C294.66060895 180.7213865 296.37295436 194.2739684 299 208 C299.17611816 208.92280762 299.35223633 209.84561523 299.53369141 210.79638672 C301.05329085 218.54648736 302.77539384 225.766191 306 233 C306.4596556 234.38869495 306.90065987 235.78388159 307.3125 237.1875 C308.90348306 242.12124001 311.21085399 246.61171912 313.59765625 251.203125 C315 254 315 254 315.91259766 256.39013672 C321.88302136 270.7196898 333.47161974 283.76799036 344 295 C344.72703125 295.78503906 345.4540625 296.57007813 346.203125 297.37890625 C351.37898934 302.75465153 357.16287164 307.36724116 363 312 C364.23709569 312.99334449 365.47406946 313.98684082 366.7109375 314.98046875 C367.97345823 315.98760641 369.23647301 316.99412506 370.5 318 C371.0995752 318.48122314 371.69915039 318.96244629 372.31689453 319.45825195 C374.86913653 321.47438502 376.88835275 322.96278425 380 324 C380.57125777 330.56946438 378.60355591 335.03749026 376 341 C375.4199829 342.42187828 374.84344119 343.84517699 374.26953125 345.26953125 C367.5812015 361.74824801 359.68745325 376.77743797 349.27929688 391.21582031 C348.41952466 392.41490721 347.57197886 393.62284684 346.73632812 394.83886719 C344.11423506 398.62883478 341.33651043 401.79236765 338 405 C336.65927796 406.39248871 335.32244459 407.78872604 333.98828125 409.1875 C319.42335286 424.26510133 303.97364948 435.78543784 285.72998047 446.01757812 C284.31481659 446.82122185 282.92147315 447.66318291 281.53515625 448.515625 C274.92923539 452.52228717 267.5941476 454.7839749 260.30566406 457.22070312 C258.01566685 457.99470472 255.73803745 458.79829929 253.4609375 459.609375 C243.73410216 463.0318189 234.21121626 465.50748688 224 467 C222.39185425 467.25269653 222.39185425 467.25269653 220.7512207 467.51049805 C211.99836962 468.802846 203.48444175 469.34362026 194.64819336 469.31567383 C192.5663641 469.31250588 190.4859533 469.33613595 188.40429688 469.36132812 C179.87054501 469.40029875 171.93555543 468.49794035 163.58300781 466.74291992 C160.1263421 466.02619644 156.68366995 465.48234272 153.1875 465 C139.55171403 462.93702131 127.02700075 457.98856267 114.5859375 452.16015625 C112.22787485 451.10223388 109.87243261 450.23512125 107.4375 449.375 C84.55979103 440.2746752 62.37827792 421.00834353 47 402 C46.1020479 400.93708975 45.20355811 399.87463361 44.3046875 398.8125 C24.83347697 375.49203454 11.0976353 347.60408205 4.625 317.9375 C4.3863623 316.85178711 4.14772461 315.76607422 3.90185547 314.64746094 C-0.08692035 295.11024664 -0.28373809 275.52985129 -0.22705078 255.65917969 C-0.22536476 252.85823459 -0.22671791 250.05729279 -0.22793579 247.25634766 C-0.22897588 241.26746561 -0.22279202 235.27862772 -0.21146011 229.28975677 C-0.19508765 220.63125281 -0.18998521 211.97276982 -0.18748413 203.31425205 C-0.18312527 189.26059609 -0.16986573 175.20696357 -0.15087891 161.15332031 C-0.13247295 147.51530066 -0.11833964 133.87728741 -0.10986328 120.23925781 C-0.10933783 119.39620554 -0.10881239 118.55315326 -0.10827102 117.68455395 C-0.10566062 113.45449044 -0.10313328 109.22442689 -0.10064721 104.99436331 C-0.07997116 69.99622551 -0.04479548 34.99811493 0 0 Z " fill="#FDFBF9" transform="translate(15,26)"/>
<path d="M0 0 C1.86350098 0.30671631 1.86350098 0.30671631 3.76464844 0.61962891 C10.40501026 1.83004482 15.67241715 3.47847208 21.5625 6.75 C24.06775334 7.63191577 24.06775334 7.63191577 26.375 8.1875 C36.29080451 11.00328571 45.40750296 16.1006036 54.5625 20.75 C53.89445742 24.58678548 52.11794703 27.40487696 50.09765625 30.703125 C49.57458893 31.56158775 49.57458893 31.56158775 49.04095459 32.43739319 C47.907382 34.2947568 46.76634451 36.14740398 45.625 38 C44.83840468 39.2851672 44.05219203 40.57056869 43.26635742 41.85620117 C38.96364116 48.88639914 34.62865865 55.89640147 30.23608398 62.87084961 C26.65695301 68.5633149 23.17350163 74.31266559 19.6875 80.0625 C14.84475304 88.04648824 9.92592276 95.9750011 4.91748047 103.85595703 C-0.30705186 112.08914198 -5.37841066 120.4144532 -10.4375 128.75 C-14.07564926 128.21390648 -17.31813542 127.48621292 -20.75 126.1875 C-31.19677139 123.02037926 -42.82081129 123.33567739 -52.66015625 128.140625 C-65.28565044 135.45666383 -73.37561354 143.94485511 -78.4375 157.75 C-81.98265842 171.1125202 -79.62982872 184.43519051 -73.015625 196.30078125 C-69.80205191 201.44077046 -65.88715316 205.65579251 -61.4375 209.75 C-63.18369502 214.81498673 -65.98083434 219.19722166 -68.75 223.75 C-69.28343018 224.63300781 -69.81686035 225.51601562 -70.36645508 226.42578125 C-74.60239805 233.41994077 -78.90359083 240.37318486 -83.22119141 247.31713867 C-87.90916569 254.86675655 -92.52159361 262.4611978 -97.125 270.0625 C-102.4092186 278.78544232 -107.70555877 287.49793894 -113.1640625 296.11328125 C-114.85519214 298.79077967 -116.47968705 301.50123872 -118.0859375 304.23046875 C-118.53138916 304.97522461 -118.97684082 305.71998047 -119.43579102 306.48730469 C-120.2878766 307.91383177 -121.12773991 309.347759 -121.95288086 310.79003906 C-123.61956812 313.55464296 -124.9028192 315.47650374 -127.8125 316.96484375 C-131.67747235 316.64851417 -134.14322044 314.66344722 -137.125 312.375 C-137.73931885 311.91963867 -138.3536377 311.46427734 -138.98657227 310.99511719 C-143.63999455 307.49367625 -148.01871233 303.73535688 -152.2734375 299.7578125 C-154.12875078 298.03645685 -156.02470874 296.45342909 -158 294.875 C-162.81710824 290.78158877 -166.52850743 285.68374583 -170.4375 280.75 C-171.4275 279.57630859 -171.4275 279.57630859 -172.4375 278.37890625 C-197.48330218 248.43503389 -209.62690171 209.46438051 -209.62280273 170.81103516 C-209.62498254 168.51836375 -209.64318066 166.22618013 -209.66210938 163.93359375 C-209.71699828 150.34038873 -208.08817038 137.67459433 -204.125 124.625 C-203.81522217 123.58601563 -203.50544434 122.54703125 -203.1862793 121.4765625 C-201.02352688 114.35351756 -198.66233941 107.47124425 -195.4375 100.75 C-195.10105469 100.04617187 -194.76460938 99.34234375 -194.41796875 98.6171875 C-193.77487093 97.31049471 -193.117714 96.01060799 -192.4453125 94.71875 C-191.73942416 93.33980534 -191.07034291 91.94168517 -190.4296875 90.53125 C-172.47250744 51.8542468 -133.69158624 22.07153612 -94.55078125 7.5078125 C-82.32501209 3.1540067 -70.33650281 0.14118306 -57.4375 -1.25 C-56.69242188 -1.33991211 -55.94734375 -1.42982422 -55.1796875 -1.52246094 C-36.79609035 -3.60263104 -18.22025371 -3.02767785 0 0 Z " fill="#FDFBF9" transform="translate(537.4375,21.25)"/>
<path d="M0 0 C0 45.21 0 90.42 0 137 C-7.51388785 139.1468251 -14.15828354 140.15444742 -21.92578125 140.16796875 C-22.6666246 140.1721582 -23.40746796 140.17634766 -24.17076111 140.18066406 C-26.55139569 140.19038342 -28.93184899 140.19046429 -31.3125 140.1875 C-32.52927429 140.18709213 -32.52927429 140.18709213 -33.77062988 140.18667603 C-45.31004406 140.16881625 -56.59267841 139.87517615 -68 138 C-69.85044922 137.76023437 -69.85044922 137.76023437 -71.73828125 137.515625 C-89.56901914 134.82006912 -107.28272677 127.7443148 -123 119 C-121.66118533 113.4203994 -119.54729491 109.06500739 -116.5625 104.1875 C-115.90531982 103.09260254 -115.90531982 103.09260254 -115.23486328 101.97558594 C-113.83215827 99.64486123 -112.41725278 97.32190273 -111 95 C-110.05851724 93.4492652 -109.11711063 91.89848416 -108.17578125 90.34765625 C-105.46392319 85.8901693 -102.7343498 81.44371509 -100 77 C-99.26948721 75.81122498 -98.53901533 74.62242482 -97.80859375 73.43359375 C-95.87424874 70.28791723 -93.93740653 67.14379162 -92 64 C-90.6665205 61.83342329 -89.3331889 59.66675554 -88 57.5 C-86.99839844 55.87384766 -86.99839844 55.87384766 -85.9765625 54.21484375 C-84.71782528 52.16753004 -83.46226576 50.11825673 -82.2109375 48.06640625 C-79.01932508 42.84438508 -75.78706438 37.65494974 -72.48828125 32.5 C-71.86324707 31.52281006 -71.23821289 30.54562012 -70.59423828 29.53881836 C-69.34405557 27.58734878 -68.09121702 25.63757753 -66.83544922 23.68969727 C-63.97084175 19.21965482 -61.22978625 14.82181214 -59 10 C-55.48963097 10.42984111 -52.23763899 10.92295993 -48.8671875 12.015625 C-38.1087897 14.75412626 -24.70949146 14.70018619 -15 9 C-14.10667969 8.50628906 -13.21335937 8.01257813 -12.29296875 7.50390625 C-7.51542297 4.81472648 -7.51542297 4.81472648 -3.33984375 1.31640625 C-2 0 -2 0 0 0 Z " fill="#FCFBFA" transform="translate(540,225)"/>
<path d="M0 0 C21.67029645 4.29544852 44.36188253 33.33986974 56.0625 50.625 C76 80.78107316 76 80.78107316 76 94 C32.77 94 -10.46 94 -55 94 C-55 101.26 -55 108.52 -55 116 C-58.97698564 114.01150718 -61.21351425 112.42339678 -64 109 C-63.72726733 104.66576196 -61.79375317 101.67152036 -59.5 98.0625 C-58.9594397 97.20410522 -58.9594397 97.20410522 -58.40795898 96.32836914 C-56.64955988 93.54553454 -54.85964955 90.78394537 -53.06640625 88.0234375 C-42.23698004 71.34654333 -32.10198978 54.21690533 -21.8984375 37.15234375 C-19.97677769 33.9614395 -18.02375825 30.79169563 -16.0625 27.625 C-12.85579297 22.43103791 -9.72407787 17.19637181 -6.625 11.9375 C-5.98123413 10.84719482 -5.98123413 10.84719482 -5.32446289 9.73486328 C-4.92090576 9.04763184 -4.51734863 8.36040039 -4.1015625 7.65234375 C-3.74400879 7.04382568 -3.38645508 6.43530762 -3.01806641 5.80834961 C-1.94492708 3.90217623 -0.962855 1.96386698 0 0 Z " fill="#FCFBFB" transform="translate(596,46)"/>
<path d="M0 0 C31.45567261 -0.87802121 31.45567261 -0.87802121 42.87109375 7.9609375 C48.18199854 13.04771237 52.03915133 18.84705074 52.23828125 26.31640625 C52.52449449 39.67004289 51.76246446 48.99335535 42.22265625 59.0859375 C35.95295877 64.48514974 28.5958191 66.12486172 20.51953125 66.1328125 C19.27365234 66.13410156 18.02777344 66.13539063 16.74414062 66.13671875 C15.44669922 66.13285156 14.14925781 66.12898438 12.8125 66.125 C10.84893555 66.13080078 10.84893555 66.13080078 8.84570312 66.13671875 C7.60369141 66.13542969 6.36167969 66.13414062 5.08203125 66.1328125 C3.93968018 66.13168457 2.7973291 66.13055664 1.62036133 66.12939453 C-1 66 -1 66 -2 65 C-2.10104951 62.77138165 -2.13082556 60.53950092 -2.1328125 58.30859375 C-2.13485939 57.27531448 -2.13485939 57.27531448 -2.13694763 56.22116089 C-2.13898675 53.95989291 -2.13263005 51.69875479 -2.125 49.4375 C-2.12378143 48.67134369 -2.12256287 47.90518738 -2.12130737 47.11581421 C-2.10270332 37.17487417 -1.97346173 27.24619077 -1.5625 17.3125 C-1.52334473 16.35980225 -1.48418945 15.40710449 -1.44384766 14.42553711 C-1.21293909 9.55655128 -0.78328473 4.81160621 0 0 Z " fill="#F3F2F2" transform="translate(920,87)"/>
<path d="M0 0 C0 0.66 0 1.32 0 2 C0.59554687 2.26296875 1.19109375 2.5259375 1.8046875 2.796875 C4.10511708 4.05760865 5.42244407 5.271113 7.125 7.25 C7.62257813 7.81203125 8.12015625 8.3740625 8.6328125 8.953125 C11.57317084 13.35526149 12.24985204 17.83241156 12.24050903 23.03646851 C12.24325836 24.22269806 12.24600769 25.40892761 12.24884033 26.63110352 C12.24164978 27.91863525 12.23445923 29.20616699 12.22705078 30.53271484 C12.22648616 31.91289258 12.22680422 33.29307091 12.22793579 34.67324829 C12.22850833 38.40836407 12.21677008 42.14335073 12.20278788 45.87843657 C12.19026401 49.78618937 12.18910871 53.69394531 12.18673706 57.60171509 C12.18052715 64.99639771 12.16412297 72.39102102 12.14403808 79.78567755 C12.12166384 88.20644619 12.11068182 96.6272177 12.10064721 105.04800868 C12.0797563 122.3653734 12.04458985 139.68268042 12 157 C11.67 157 11.34 157 11 157 C11 123.01 11 89.02 11 54 C10.34 54 9.68 54 9 54 C7.85185003 51.70370006 7.69230191 49.92301914 7.4375 47.375 C7.35371094 46.55773437 7.26992188 45.74046875 7.18359375 44.8984375 C7.12300781 44.27195312 7.06242188 43.64546875 7 43 C5.68 43 4.36 43 3 43 C3.33 43.66 3.66 44.32 4 45 C1.02026385 45.08184423 -1.95716832 45.14089764 -4.9375 45.1875 C-5.76830078 45.21263672 -6.59910156 45.23777344 -7.45507812 45.26367188 C-15.09837243 45.35289321 -22.85742225 44.06014281 -28.6484375 38.625 C-33.83243497 32.39221691 -35.86369639 25.96302679 -35.48046875 17.89453125 C-34.27772898 10.64875754 -30.33815822 5.72446544 -24.74609375 1.19140625 C-17.33180936 -3.86755737 -8.19242205 -2.97906256 0 0 Z " fill="#232222" transform="translate(966,331)"/>
<path d="M0 0 C1.48117801 0.28127421 2.95993249 0.57533732 4.4375 0.875 C5.67306641 1.11863281 5.67306641 1.11863281 6.93359375 1.3671875 C7.95646484 1.68042969 7.95646484 1.68042969 9 2 C9.495 2.99 9.495 2.99 10 4 C12.30690996 4.77046456 12.30690996 4.77046456 15.0625 5.375 C19.37742283 6.48153305 23.0475556 7.83805938 26.9453125 9.96484375 C30.17003854 11.58946809 33.58314389 12.70782325 36.99609375 13.875 C39 15 39 15 39.84375 16.890625 C40.08557408 20.1552501 39.00591995 22.92306838 38 26 C29.28602395 25.39204818 21.06152132 21.66573654 13.375 17.6875 C10.18168052 15.7763932 10.18168052 15.7763932 7 16 C5.35 20.62 3.7 25.24 2 30 C3.32 30.33 4.64 30.66 6 31 C6.75925781 31.47308594 7.51851562 31.94617188 8.30078125 32.43359375 C11.51899409 34.30118181 14.59132846 35.12651015 18.1875 36.0625 C24.78186969 37.78186969 24.78186969 37.78186969 27 40 C27.046875 41.91015625 27.046875 41.91015625 26.75 44.0625 C26.66234375 44.77535156 26.5746875 45.48820312 26.484375 46.22265625 C26.24460937 47.10244141 26.24460937 47.10244141 26 48 C23.12762952 49.43618524 21.2114928 49.2636023 18 49 C15.21339375 48.05876219 12.58997427 46.82805962 9.9375 45.5625 C3.69608432 42.60481463 3.69608432 42.60481463 -3 41 C-3.70365602 42.5552912 -4.38729378 44.11964827 -5.0625 45.6875 C-5.63677734 46.99267578 -5.63677734 46.99267578 -6.22265625 48.32421875 C-7.0935848 51.32213864 -6.85006226 53.03280153 -6 56 C-5.39671875 56.18175781 -4.7934375 56.36351562 -4.171875 56.55078125 C-2.97304688 56.92783203 -2.97304688 56.92783203 -1.75 57.3125 C-0.96109375 57.55613281 -0.1721875 57.79976562 0.640625 58.05078125 C3 59 3 59 4.91015625 60.484375 C8.34467455 62.97520322 12.37109438 63.70945925 16.41796875 64.83984375 C19 66 19 66 19.984375 67.89453125 C20.01200468 71.6176304 17.95922317 73.91273924 16 77 C12.11864896 76.02966224 8.72339843 74.94207126 5.1875 73.0625 C0.65678438 70.68587707 -4.07694877 69.33164501 -9 68 C-9 67.34 -9 66.68 -9 66 C-9.71542969 65.87753906 -10.43085937 65.75507813 -11.16796875 65.62890625 C-14.05112713 64.98864625 -16.58592473 64.06448444 -19.3125 62.9375 C-20.63701172 62.39416016 -20.63701172 62.39416016 -21.98828125 61.83984375 C-22.65214844 61.56269531 -23.31601562 61.28554687 -24 61 C-23.41334502 54.96149958 -20.99669852 49.82310558 -18.625 44.3125 C-17.7201902 42.17887865 -16.81659296 40.04474277 -15.9140625 37.91015625 C-15.44000977 36.79141113 -14.96595703 35.67266602 -14.47753906 34.52001953 C-11.4416469 27.28745291 -8.51804538 20.00855922 -5.58056641 12.7355957 C-5.14147949 11.65238037 -4.70239258 10.56916504 -4.25 9.453125 C-3.86328125 8.49567383 -3.4765625 7.53822266 -3.078125 6.55175781 C-2.13309562 4.31501707 -1.11632589 2.15527011 0 0 Z " fill="#F2F2F2" transform="translate(1014,100)"/>
<path d="M0 0 C4.2687882 0.4743098 6.31511656 2.80716564 9 6 C10.25454809 9.35126966 10.11398335 10.71522254 8.76953125 14.07421875 C8.12931839 15.2851376 7.47587996 16.48911609 6.8125 17.6875 C2.81789214 25.25835532 -0.81380453 32.96637485 -4.375 40.75 C-5.40338382 42.99491171 -6.43201425 45.23971048 -7.4609375 47.484375 C-7.90228027 48.45084961 -8.34362305 49.41732422 -8.79833984 50.41308594 C-9.8281817 52.63011241 -10.89249424 54.82098403 -12 57 C-3.92674569 52.57711705 4.00637065 47.92475789 11.94140625 43.25976562 C14.95432835 41.49483367 17.97555479 39.74509995 21 38 C22.50095215 37.11997314 22.50095215 37.11997314 24.03222656 36.22216797 C25.4742041 35.39869873 25.4742041 35.39869873 26.9453125 34.55859375 C27.79883301 34.06544678 28.65235352 33.5722998 29.53173828 33.06420898 C32.2660599 31.88528634 34.05358764 31.67960918 37 32 C39.01953125 33.4609375 39.01953125 33.4609375 40.8125 35.375 C41.41707031 36.00148437 42.02164062 36.62796875 42.64453125 37.2734375 C44 39 44 39 44 41 C40.3782427 42.83979221 36.75208102 44.67072866 33.125 46.5 C32.09246094 47.02464844 31.05992188 47.54929688 29.99609375 48.08984375 C29.00996094 48.58613281 28.02382812 49.08242187 27.0078125 49.59375 C26.09660645 50.05458984 25.18540039 50.51542969 24.24658203 50.99023438 C22 52 22 52 20 52 C20 52.66 20 53.32 20 54 C18.61361328 54.57234375 18.61361328 54.57234375 17.19921875 55.15625 C11.97070669 57.3987329 6.90011867 59.95787642 1.8125 62.5 C0.33620117 63.22896484 0.33620117 63.22896484 -1.16992188 63.97265625 C-2.11802734 64.44574219 -3.06613281 64.91882813 -4.04296875 65.40625 C-4.89914795 65.83228516 -5.75532715 66.25832031 -6.63745117 66.69726562 C-9.03385376 67.94277749 -9.03385376 67.94277749 -11.13012695 69.62695312 C-13 71 -13 71 -15.875 71.5625 C-19.70535277 70.8730365 -21.31752987 69.63726822 -23.85546875 66.7578125 C-25.90968863 63.6028673 -25.66221019 61.67225649 -25 58 C-23.94153984 55.29802364 -22.73418325 52.70936987 -21.46875 50.09765625 C-19.96185607 46.91955283 -18.65673644 43.71263469 -17.375 40.4375 C-14.46767827 33.05645873 -11.39841507 25.74542054 -8.3125 18.4375 C-7.8366748 17.30691162 -7.36084961 16.17632324 -6.87060547 15.01147461 C-6.41443848 13.93389893 -5.95827148 12.85632324 -5.48828125 11.74609375 C-5.08134033 10.78372803 -4.67439941 9.8213623 -4.25512695 8.82983398 C-2.92746898 5.83647012 -1.48548497 2.9178302 0 0 Z " fill="#F4F4F4" transform="translate(1087,136)"/>
<path d="M0 0 C8.85353527 -0.75929817 15.67265537 0.70863375 23 6 C27.35673484 10.94548279 27.64663071 15.08004339 27.5625 21.375 C27.58634766 22.18710938 27.61019531 22.99921875 27.63476562 23.8359375 C27.61990869 30.01642195 25.95678244 34.23493678 22 39 C19.4375 40.875 19.4375 40.875 17 42 C16.43925781 42.350625 15.87851562 42.70125 15.30078125 43.0625 C12.06310428 44.38175717 9.22923668 44.18943031 5.75 44.125 C3.85507812 44.09792969 3.85507812 44.09792969 1.921875 44.0703125 C0.47554687 44.03550781 0.47554687 44.03550781 -1 44 C-1.02517326 39.98389666 -1.04307755 35.96782537 -1.05493164 31.95166016 C-1.06229008 29.93260071 -1.07501162 27.91356303 -1.08789062 25.89453125 C-1.10929464 17.20450174 -0.74849894 8.65625944 0 0 Z " fill="#201D1E" transform="translate(932,98)"/>
<path d="M0 0 C0.495 0.99 0.495 0.99 1 2 C1.66 2 2.32 2 3 2 C1.67487421 6.48854497 -0.10860613 10.09695643 -2.61328125 14.04296875 C-3.33433981 15.18916918 -4.05519973 16.33549459 -4.77587891 17.48193359 C-5.14473206 18.0640863 -5.51358521 18.64623901 -5.89361572 19.24603271 C-7.65625817 22.04037574 -9.37893809 24.85902835 -11.10546875 27.67578125 C-12.46614583 29.88802083 -13.82682292 32.10026042 -15.1875 34.3125 C-15.87263672 35.42689453 -16.55777344 36.54128906 -17.26367188 37.68945312 C-17.93333984 38.77806641 -18.60300781 39.86667969 -19.29296875 40.98828125 C-19.92936279 42.02355957 -20.56575684 43.05883789 -21.22143555 44.12548828 C-23.13639155 47.22043571 -25.0820236 50.29452652 -27.05273438 53.35424805 C-28.44865987 55.7794887 -29.26099318 58.31270249 -30 61 C-30.66 61 -31.32 61 -32 61 C-32.22786458 58.98177083 -32.45572917 56.96354167 -32.68359375 54.9453125 C-32.91292961 52.92595684 -32.91292961 52.92595684 -34 51 C-33.06640625 49.04248047 -33.06640625 49.04248047 -31.5625 46.6171875 C-31.00409424 45.70807617 -30.44568848 44.79896484 -29.87036133 43.86230469 C-29.25314209 42.87649414 -28.63592285 41.89068359 -28 40.875 C-27.37440186 39.8634082 -26.74880371 38.85181641 -26.10424805 37.80957031 C-24.7689728 35.65364507 -23.429893 33.50007244 -22.08740234 31.34863281 C-19.99150237 27.98636801 -17.91050466 24.61524734 -15.83203125 21.2421875 C-14.49284139 19.07772029 -13.15301622 16.91364601 -11.8125 14.75 C-11.17763672 13.72116699 -10.54277344 12.69233398 -9.88867188 11.63232422 C-8.99438477 10.19783936 -8.99438477 10.19783936 -8.08203125 8.734375 C-7.55843018 7.89100586 -7.0348291 7.04763672 -6.49536133 6.17871094 C-4.61929741 3.44532409 -2.97698043 1.48849021 0 0 Z M-3 3 C-2 5 -2 5 -2 5 Z " fill="#211E1D" transform="translate(447,283)"/>
<path d="M0 0 C43.56 0.33 87.12 0.66 132 1 C132 1.33 132 1.66 132 2 C88.77 2 45.54 2 1 2 C1 9.26 1 16.52 1 24 C-2.97698564 22.01150718 -5.21351425 20.42339678 -8 17 C-7 12 -7 12 0 0 Z " fill="#6C6A6C" transform="translate(540,138)"/>
<path d="M0 0 C2.46279907 0.0682373 2.46279907 0.0682373 4.46279907 1.0682373 C4.46279907 1.7282373 4.46279907 2.3882373 4.46279907 3.0682373 C-33.81720093 3.0682373 -72.09720093 3.0682373 -111.53720093 3.0682373 C-111.53720093 2.4082373 -111.53720093 1.7482373 -111.53720093 1.0682373 C-97.55937701 0.93751406 -83.58155011 0.80711434 -69.60371971 0.67708588 C-63.11328368 0.61669931 -56.62284864 0.55620937 -50.13241577 0.4954834 C-43.86898647 0.43688512 -37.6055547 0.37855812 -31.34212112 0.32041931 C-28.95232681 0.29818893 -26.56253341 0.27586074 -24.17274094 0.25343323 C-20.82596823 0.22204142 -17.47919247 0.1909971 -14.13241577 0.16003418 C-12.64995361 0.14600807 -12.64995361 0.14600807 -11.13754272 0.13169861 C-9.36112354 0.11539823 -7.58468832 0.10071314 -5.80823898 0.08811951 C-3.87201072 0.07116846 -1.93594226 0.0373469 0 0 Z " fill="#524B4C" transform="translate(669.5372009277344,153.9317626953125)"/>
<path d="M0 0 C0.33 0 0.66 0 1 0 C2.65987849 4.35985734 3.24805488 7.95013848 3.24050903 12.60592651 C3.24325836 13.91836838 3.24600769 15.23081024 3.24884033 16.58302307 C3.24176334 18.02523896 3.23449374 19.46745392 3.22705078 20.90966797 C3.22648626 22.43762708 3.22680402 23.96558674 3.22793579 25.49354553 C3.22850873 29.63153579 3.21676398 33.76940969 3.20278788 37.90737295 C3.19027068 42.23553468 3.18910924 46.56369918 3.18673706 50.89187622 C3.1805252 59.08341532 3.16411836 67.27490092 3.14403808 75.46641648 C3.12166993 84.79406108 3.11068335 94.12170826 3.10064721 103.44937301 C3.07975188 122.63294565 3.04458161 141.81646852 3 161 C2.67 161 2.34 161 2 161 C1.99365209 159.91029954 1.99365209 159.91029954 1.98717594 158.79858494 C1.88347799 141.0506899 1.77478521 123.30283231 1.66066074 105.55500126 C1.60558718 96.97198306 1.5521504 88.38896071 1.50268555 79.8059082 C1.45952397 72.31733207 1.41317043 64.82878334 1.36312145 57.34024996 C1.33677498 53.38205049 1.31193338 49.42385555 1.29092598 45.46562386 C1.22010364 22.71332563 1.22010364 22.71332563 0 0 Z " fill="#73666B" transform="translate(1090,328)"/>
<path d="M0 0 C2.3125 1.625 2.3125 1.625 4 4 C4.5 7.0625 4.5 7.0625 4 10 C1.92584514 12.30461651 0.52600949 12.8947981 -2.5 13.5 C-5 13 -5 13 -7.375 10.8125 C-9 8 -9 8 -8.9375 5.375 C-7.11691639 0.76285486 -5.04600089 -0.86151235 0 0 Z " fill="#ECEDEE" transform="translate(890,147)"/>
<path d="M0 0 C0.66 0.66 1.32 1.32 2 2 C3.32 2 4.64 2 6 2 C4.87073305 5.28514023 3.38365351 8.04256348 1.5 10.9375 C-0.58879422 14.18468158 -1.96942779 17.25246468 -3 21 C-3.66 21 -4.32 21 -5 21 C-5.34179688 17.97265625 -5.34179688 17.97265625 -5.68359375 14.9453125 C-5.91292961 12.92595684 -5.91292961 12.92595684 -7 11 C-5.56640625 8.3984375 -5.56640625 8.3984375 -3.5625 5.375 C-2.90378906 4.37210937 -2.24507813 3.36921875 -1.56640625 2.3359375 C-1.04949219 1.56507813 -0.53257812 0.79421875 0 0 Z " fill="#282627" transform="translate(420,323)"/>
<path d="M0 0 C0.66 0 1.32 0 2 0 C2 5.94 2 11.88 2 18 C-1.59574725 16.20212638 -3.5903054 15.12367819 -6 12 C-6 7.34900319 -3.23933849 3.23933849 0 0 Z " fill="#DFDEE0" transform="translate(538,143)"/>
<path d="M0 0 C0.66 0 1.32 0 2 0 C2.33052429 5.97392045 2.06439921 10.49914626 -0.34375 15.984375 C-1.33263087 19.02165197 -1.08030719 21.8672175 -0.8125 25.01953125 C-1 27 -1 27 -2.5 28.76171875 C-2.995 29.17035156 -3.49 29.57898438 -4 30 C-4.25645895 23.26795268 -3.28162548 17.0986393 -2 10.5 C-1.80921875 9.48679688 -1.6184375 8.47359375 -1.421875 7.4296875 C-0.95435389 4.95182561 -0.48026672 2.47541732 0 0 Z " fill="#625F5D" transform="translate(315,139)"/>
<path d="M0 0 C0.89074219 0.06058594 1.78148437 0.12117188 2.69921875 0.18359375 C17.12083885 1.10171844 31.55756188 1.54162687 46 2 C46 2.33 46 2.66 46 3 C40.57398799 3.04964329 35.14810985 3.08583447 29.72192383 3.10986328 C27.87815038 3.11988642 26.03439269 3.13350852 24.19067383 3.15087891 C21.5320241 3.17528995 18.87358557 3.18652017 16.21484375 3.1953125 C15.39789536 3.20563507 14.58094696 3.21595764 13.73924255 3.22659302 C8.77251546 3.22755457 4.7110509 2.59145963 0 1 C0 0.67 0 0.34 0 0 Z " fill="#776B73" transform="translate(473,363)"/>
<path d="M0 0 C0.66 0.33 1.32 0.66 2 1 C-5.59 8.59 -13.18 16.18 -21 24 C-21.66 23.67 -22.32 23.34 -23 23 C-8.1431293 6.74285575 -8.1431293 6.74285575 0 0 Z " fill="#D3D1D1" transform="translate(391,58)"/>
<path d="M0 0 C1.32 0.33 2.64 0.66 4 1 C3.85904936 2.6254308 3.71207913 4.25034051 3.5625 5.875 C3.48128906 6.77992188 3.40007812 7.68484375 3.31640625 8.6171875 C3 11 3 11 2 13 C1.34 13 0.68 13 0 13 C-0.22786458 10.98177083 -0.45572917 8.96354167 -0.68359375 6.9453125 C-0.91292961 4.92595684 -0.91292961 4.92595684 -2 3 C-1.34 2.01 -0.68 1.02 0 0 Z " fill="#302C2F" transform="translate(415,331)"/>
<path d="M0 0 C0.33 0 0.66 0 1 0 C3.57996518 5.87094438 3.22552426 11.59609985 3.125 17.875 C3.11597656 18.94492187 3.10695313 20.01484375 3.09765625 21.1171875 C3.07419342 23.74502439 3.04136459 26.37239406 3 29 C2.67 29 2.34 29 2 29 C1.66022275 25.66729126 1.32936937 22.33375214 1 19 C0.90460938 18.06542969 0.80921875 17.13085938 0.7109375 16.16796875 C0.18019535 10.74681677 -0.1027694 5.44677829 0 0 Z " fill="#594E4F" transform="translate(1090,328)"/>
<path d="M0 0 C0.33 0.99 0.66 1.98 1 3 C-5.93 9.435 -5.93 9.435 -13 16 C-13.99 15.67 -14.98 15.34 -16 15 C-15.18015625 14.25234375 -14.3603125 13.5046875 -13.515625 12.734375 C-12.42703861 11.73963227 -11.33849945 10.74483787 -10.25 9.75 C-9.71117187 9.25886719 -9.17234375 8.76773437 -8.6171875 8.26171875 C-5.6756284 5.57126836 -2.7926232 2.8468489 0 0 Z " fill="#424043" transform="translate(802,455)"/>
<path d="M0 0 C0.578125 1.91015625 0.578125 1.91015625 1 4 C-0.25 5.4375 -0.25 5.4375 -2 7 C-3.0064275 8.66279327 -4.00585407 10.32983484 -5 12 C-7.0625 14.8125 -7.0625 14.8125 -9 17 C-9.66 17 -10.32 17 -11 17 C-9.24933204 13.11390189 -6.81675994 9.72187742 -4.375 6.25 C-3.95476562 5.64800781 -3.53453125 5.04601562 -3.1015625 4.42578125 C-2.07006863 2.94886957 -1.03535421 1.47420806 0 0 Z " fill="#424043" transform="translate(371,406)"/>
<path d="M0 0 C0.33 0.99 0.66 1.98 1 3 C-6.29840547 10.48291572 -6.29840547 10.48291572 -10 13 C-10.66 12.67 -11.32 12.34 -12 12 C-8.04 8.04 -4.08 4.08 0 0 Z " fill="#4D4B4F" transform="translate(352,431)"/>
<path d="M0 0 C0.66 0 1.32 0 2 0 C2.05437607 1.58294782 2.09296271 3.16644256 2.125 4.75 C2.14820313 5.63171875 2.17140625 6.5134375 2.1953125 7.421875 C1.99139502 10.1135858 1.36551721 11.69904974 0 14 C-0.33 14 -0.66 14 -1 14 C-1.08333357 9.1666528 -0.95261487 4.76307437 0 0 Z " fill="#424141" transform="translate(315,139)"/>
<path d="M0 0 C0.33 0 0.66 0 1 0 C1.39008806 2.74862047 1.76250503 5.4977234 2.125 8.25 C2.23714844 9.02730469 2.34929688 9.80460937 2.46484375 10.60546875 C3.37751589 17.72431144 3.37751589 17.72431144 1 21 C0.67 21 0.34 21 0 21 C0 14.07 0 7.14 0 0 Z " fill="#271F21" transform="translate(676,320)"/>
<path d="M0 0 C2.49361571 1.20381448 4.68143083 2.45428722 7 4 C7 4.66 7 5.32 7 6 C6.01 6.33 5.02 6.66 4 7 C1.7363436 5.59554165 -0.0208685 3.8032087 -2 2 C-1.34 1.34 -0.68 0.68 0 0 Z " fill="#231F21" transform="translate(619,58)"/>
<path d="M0 0 C1.32 0.66 2.64 1.32 4 2 C4 2.66 4 3.32 4 4 C3.34 4 2.68 4 2 4 C1.67 5.32 1.34 6.64 1 8 C0.01 7.34 -0.98 6.68 -2 6 C-1.34 4.02 -0.68 2.04 0 0 Z " fill="#0B0909" transform="translate(594,41)"/>
<path d="M0 0 C0.33 1.32 0.66 2.64 1 4 C-1.97 6.475 -1.97 6.475 -5 9 C-5.66 8.67 -6.32 8.34 -7 8 C-4.69 5.36 -2.38 2.72 0 0 Z " fill="#514F50" transform="translate(967,139)"/>
<path d="M0 0 C2.97 0.99 5.94 1.98 9 3 C6.26094655 4.36952673 4.02912668 4.12621361 1 4 C0.34 3.67 -0.32 3.34 -1 3 C-0.67 2.01 -0.34 1.02 0 0 Z " fill="#5F5D5E" transform="translate(1011,140)"/>
<path d="M0 0 C0.93065133 2.60582371 1.14917407 3.64198224 0.0625 6.25 C-0.4634375 7.11625 -0.4634375 7.11625 -1 8 C-1.99 8 -2.98 8 -4 8 C-2.87548273 5.0280615 -1.77706209 2.66559313 0 0 Z " fill="#403E41" transform="translate(376,398)"/>
<path d="M0 0 C0.66 0.33 1.32 0.66 2 1 C1.04882866 2.1725131 0.08882991 3.33787015 -0.875 4.5 C-1.40867187 5.1496875 -1.94234375 5.799375 -2.4921875 6.46875 C-2.98976563 6.9740625 -3.48734375 7.479375 -4 8 C-4.66 8 -5.32 8 -6 8 C-4.55746343 4.63408134 -2.66735273 2.48952921 0 0 Z " fill="#525153" transform="translate(473,156)"/>
<path d="M0 0 C0.66 1.32 1.32 2.64 2 4 C0.02 5.32 -1.96 6.64 -4 8 C-2.87548273 5.0280615 -1.77706209 2.66559313 0 0 Z " fill="#353334" transform="translate(539,129)"/>
<path d="M0 0 C0.66 0.33 1.32 0.66 2 1 C0.38405168 3.04119788 -1.2856382 5.04072937 -3 7 C-3.66 7 -4.32 7 -5 7 C-3.70700306 4.11562221 -2.34058637 2.12780579 0 0 Z " fill="#424141" transform="translate(940,333)"/>
<path d="M0 0 C3.3 0.99 6.6 1.98 10 3 C10 3.33 10 3.66 10 4 C6.05272412 4.17942163 3.4019487 4.09350689 0 2 C0 1.34 0 0.68 0 0 Z " fill="#4E474C" transform="translate(432,351)"/>
<path d="M0 0 C0.66 0.66 1.32 1.32 2 2 C0.7260411 4.03833424 -0.61061923 6.03852126 -2 8 C-2.66 8 -3.32 8 -4 8 C-2.87548273 5.0280615 -1.77706209 2.66559313 0 0 Z " fill="#2C2928" transform="translate(578,66)"/>
</svg>
