<?xml version="1.0" encoding="UTF-8"?>
<svg version="1.1" xmlns="http://www.w3.org/2000/svg" width="1146" height="503">
<path d="M0 0 C378.18 0 756.36 0 1146 0 C1146 165.99 1146 331.98 1146 503 C767.82 503 389.64 503 0 503 C0 337.01 0 171.02 0 0 Z " fill="#FDFBFA" transform="translate(0,0)"/>
<path d="M0 0 C38.94 0 77.88 0 118 0 C118.00257813 14.58703125 118.00515625 29.1740625 118.0078125 44.203125 C118.02276013 53.44533484 118.03921825 62.68750112 118.0625 71.9296875 C118.09917131 86.5986729 118.12968315 101.26748556 118.12011719 115.93652344 C118.11317835 126.62053198 118.12729164 137.30427249 118.16643608 147.98821521 C118.18642472 153.64269968 118.19603978 159.29676352 118.18042374 164.95127106 C118.16604031 170.28008664 118.1799329 175.6081006 118.21495247 180.93681335 C118.22288168 182.88617782 118.22072664 184.83561527 118.20739174 186.78495026 C118.14017313 197.5246675 118.16586843 207.03703132 125 216 C127.53458488 218.11690284 129.98739558 219.66332642 133 221 C133.66 221.33 134.32 221.66 135 222 C143.25761256 222.91460899 150.31387625 222.2105654 157 217 C162.35111223 210.86770351 165.32499219 205.5775246 165.21875 197.41015625 C164.67879547 191.46101437 162.2828437 186.17013729 158 182 C146.10342873 174.37842167 140.77084022 175.76231092 124 175 C124 136.39 124 97.78 124 58 C171.01261579 58 208.48075625 67.29572269 242.45703125 100.359375 C253.68335479 111.65516463 263.34683687 125.53660188 270 140 C270.66 140 271.32 140 272 140 C272.29390625 139.14341797 272.29390625 139.14341797 272.59375 138.26953125 C279.74745149 118.87436645 294.25389135 102.09088248 310 89 C310.51385254 88.57138672 311.02770508 88.14277344 311.55712891 87.70117188 C340.9078072 63.46948299 377.07759488 54.98217462 414.62744141 58.22705078 C426.04577379 59.53154292 441.98488961 61.54480759 451 69 C453.32671865 70.01529541 455.6603447 71.01488198 458 72 C458.886875 72.53625 459.77375 73.0725 460.6875 73.625 C462.84697204 74.9090104 464.54870286 75.54605609 467 76 C467 76.66 467 77.32 467 78 C468.28777344 78.33451172 468.28777344 78.33451172 469.6015625 78.67578125 C473.52940611 80.20628583 476.27568388 82.42111461 479.375 85.1875 C480.22916504 85.93169189 480.22916504 85.93169189 481.10058594 86.69091797 C482.23082708 87.67707102 483.35788909 88.66688184 484.48144531 89.66064453 C485.74469945 90.77482655 487.02288435 91.87205225 488.3046875 92.96484375 C505.40545412 107.55887148 523.49801672 128.7187048 527.41015625 151.6640625 C527.9802243 154.2150393 527.9802243 154.2150393 529.48828125 157.26953125 C531.20439801 161.15017115 531.71771274 164.86584397 532.125 169.0625 C532.69024038 174.46988886 532.69024038 174.46988886 533.51933956 179.84135628 C534.01139892 183.07490759 534.12301117 186.1087567 534.12025452 189.37814331 C534.12162918 190.64010025 534.12300385 191.90205719 534.12442017 193.20225525 C534.12088173 194.58779931 534.11724693 195.97334313 534.11352539 197.35888672 C534.11324311 198.82773334 534.11340205 200.2965801 534.1139679 201.76542664 C534.11425429 205.74222966 534.10838311 209.7190024 534.10139394 213.6957984 C534.09513408 217.85580128 534.09455452 222.0158049 534.09336853 226.17581177 C534.09026298 234.04858816 534.08206004 241.92135064 534.07201904 249.79412091 C534.05874152 260.43598231 534.05335173 271.07784752 534.04751682 281.71971512 C534.03811964 298.4798205 534.01819553 315.23989651 534 332 C496.71 332 459.42 332 421 332 C420.97421875 321.8421875 420.9484375 311.684375 420.921875 301.21875 C420.89670882 294.78383488 420.87054061 288.34894968 420.83984375 281.9140625 C420.7913062 271.70019742 420.74686158 261.4864319 420.72900391 251.27246094 C420.7159788 243.83333093 420.68899233 236.3944035 420.64538693 228.95538759 C420.62279127 225.01808586 420.60708817 221.08103382 420.60811615 217.1436615 C420.6088639 213.43349837 420.59086786 209.72388678 420.55883217 206.01386642 C420.54632454 204.01157202 420.55338826 202.00918491 420.56114197 200.00686646 C420.46150303 191.3712759 419.35544998 185.99026484 413.6875 179.25 C406.87959285 173.5503568 402.4167967 172.21191594 393.44921875 172.48828125 C386.57540875 173.50806507 382.13007471 177.20793318 378 182.625 C374.80721844 188.01281889 374.52442007 192.82852089 375 199 C375.92745649 201.73774618 375.92745649 201.73774618 377 204 C377 205.32 377 206.64 377 208 C377.99 208.33 378.98 208.66 380 209 C380.721875 209.94875 381.44375 210.8975 382.1875 211.875 C385.29651137 215.81241577 385.29651137 215.81241577 393 218 C403.395 218.495 403.395 218.495 414 219 C414 256.62 414 294.24 414 333 C386.30273604 332.1344605 361.66400877 331.28732321 337 319 C336.1646875 318.59394531 335.329375 318.18789063 334.46875 317.76953125 C327.26299318 314.07347495 320.95900555 309.46574457 314.70019531 304.37841797 C313.5680193 303.46051651 312.42930417 302.55062169 311.28417969 301.64892578 C298.52541858 291.58816356 287.1768301 279.11976496 279 265 C279 264.34 279 263.68 279 263 C278.34 263 277.68 263 277 263 C276.01 260.69 275.02 258.38 274 256 C273.01 256 272.02 256 271 256 C270.72349609 256.82177734 270.72349609 256.82177734 270.44140625 257.66015625 C265.92715685 269.99910461 258.60392752 281.13542376 250 291 C249.21367188 291.93070312 248.42734375 292.86140625 247.6171875 293.8203125 C232.08054204 311.58310417 211.98761588 325.41102212 189.625 333.06640625 C187.1389328 333.95058789 184.7819094 334.98508279 182.375 336.0625 C169.93175821 340.99413108 156.41058526 341.47256165 143.19628906 341.33618164 C140.73730009 341.31237706 138.27938954 341.31568142 135.8203125 341.32226562 C122.38569713 341.30121259 110.12383521 339.73793649 97.3125 335.5 C96.33861328 335.19191406 95.36472656 334.88382812 94.36132812 334.56640625 C87.26996885 332.26996885 87.26996885 332.26996885 85 330 C82.49944496 328.94058817 79.96200311 328.02594222 77.41015625 327.09765625 C74.97356247 325.98795957 73.81629406 324.91084087 72 323 C70.73074069 322.27196165 69.43573037 321.58791903 68.125 320.9375 C45.8100409 308.88815014 29.63194879 288.47139563 17 267 C16.49210938 266.20851563 15.98421875 265.41703125 15.4609375 264.6015625 C13.61914851 261.32179923 12.33737389 257.90152308 11.0625 254.375 C10.80235107 253.66351807 10.54220215 252.95203613 10.27416992 252.21899414 C9.75352523 250.79482572 9.23436551 249.37011342 8.71679688 247.94482422 C8.11040225 246.29954508 7.47267429 244.66586594 6.828125 243.03515625 C-0.40474566 224.5356986 -0.15190975 205.0390568 -0.11352539 185.50048828 C-0.11324277 183.46889243 -0.11340271 181.43729648 -0.1139679 179.40570068 C-0.11425296 173.93148861 -0.10840354 168.45729877 -0.10139394 162.98309183 C-0.09511168 157.24693829 -0.09455276 151.51078414 -0.09336853 145.77462769 C-0.09026952 134.93071986 -0.08207551 124.08682221 -0.07201904 113.24291885 C-0.05871508 98.57660021 -0.05334644 83.91027877 -0.04751682 69.24395561 C-0.03813458 46.16262947 -0.01820613 23.08132478 0 0 Z " fill="#191919" transform="translate(563,154)"/>
<path d="M0 0 C52.8 0 105.6 0 160 0 C160.03738281 19.95210938 160.07476562 39.90421875 160.11328125 60.4609375 C160.14354935 73.08464205 160.17454924 85.7083384 160.20898438 98.33203125 C160.22703397 104.96305279 160.24489785 111.59407479 160.26245117 118.22509766 C160.2657627 119.47169731 160.2657627 119.47169731 160.26914114 120.7434808 C160.30449074 134.15243594 160.32936062 147.56139103 160.35034702 160.97037546 C160.37212576 174.73627205 160.40519586 188.50210828 160.44870156 202.26795352 C160.47518258 210.75910362 160.49290408 219.25017855 160.49934604 227.74136789 C160.5046108 233.56768972 160.52086422 239.39391704 160.54566566 245.22018819 C160.55964367 248.57940648 160.56723397 251.93831187 160.56500816 255.29758072 C160.56335397 258.9464175 160.58006843 262.59473436 160.60127258 266.24349976 C160.59642501 267.29605497 160.59157743 268.34861018 160.58658296 269.433061 C160.67421392 278.59129224 162.27881986 286.54102942 167.9375 293.9375 C168.60652344 294.83339844 169.27554688 295.72929687 169.96484375 296.65234375 C175.5523013 303.09776023 182.3756919 304.49281782 190.6328125 305.3984375 C199.72729544 305.79060206 206.51208584 304.29238377 214 299 C216.30530911 296.83191167 218.13488394 294.54222091 220 292 C220.76570313 291.29423828 220.76570313 291.29423828 221.546875 290.57421875 C226.10703224 285.63404841 226.5656644 277.19724232 226.33984375 270.79296875 C225.06937733 260.35177917 220.0170069 252.9902954 212.03125 246.3671875 C199.00072125 236.70471915 188.49896327 241.55711324 169 241 C169 187.54 169 134.08 169 79 C222.11672474 79 222.11672474 79 243 86 C244.43574759 86.44193181 245.8729994 86.8790441 247.3125 87.30859375 C268.89677599 93.9164918 268.89677599 93.9164918 278.625 99.62109375 C281.53965225 101.31331784 284.51802355 102.86713046 287.5 104.4375 C292.89436522 107.32801767 298.00071189 110.4733704 303 114 C302.71125 115.2375 302.4225 116.475 302.125 117.75 C298.20494303 135.55589257 296.64008102 153.39026578 296.68432617 171.58813477 C296.68751809 174.32803068 296.66378945 177.06687441 296.63867188 179.80664062 C296.60777501 188.66390875 296.89403431 196.79176842 299.27539062 205.37084961 C299.99856244 207.99478401 300.4387292 210.55643016 300.8125 213.25 C302.06273225 220.47591858 304.78230436 227.24410734 307.31005859 234.10009766 C308.17701041 236.4874363 308.9708785 238.89522561 309.75 241.3125 C310.81038156 244.78597046 310.81038156 244.78597046 312.078125 246.98046875 C313 249 313 249 313 253 C313.66 253 314.32 253 315 253 C315.66 255.64 316.32 258.28 317 261 C317.66 261 318.32 261 319 261 C319.33 262.98 319.66 264.96 320 267 C320.66 267 321.32 267 322 267 C323.15405273 268.44604492 323.15405273 268.44604492 324.43359375 270.48046875 C324.91223877 271.22635254 325.39088379 271.97223633 325.8840332 272.74072266 C326.39667725 273.54815918 326.90932129 274.3555957 327.4375 275.1875 C332.74898884 283.36211891 338.52502232 290.73111583 345 298 C345.62390625 298.73347656 346.2478125 299.46695312 346.890625 300.22265625 C348.55903005 302.183422 350.26364664 304.09919027 352 306 C353.03253906 307.13115234 353.03253906 307.13115234 354.0859375 308.28515625 C359.79846781 314.2728749 365.91514775 319.11970253 372.73022461 323.80175781 C377.64726803 327.29215273 377.64726803 327.29215273 379.15625 330.3203125 C378.91834005 334.40046818 377.49156839 337.81073135 375.9375 341.5625 C375.458573 342.75697754 375.458573 342.75697754 374.9699707 343.97558594 C372.67338299 349.61209598 370.12787651 355.05077388 367.26171875 360.421875 C365.89304566 363.21854448 364.92483684 366.03010141 364 369 C363.34 369 362.68 369 362 369 C361.7628125 369.67933594 361.525625 370.35867188 361.28125 371.05859375 C359.70874788 374.66863673 357.67266396 377.78962123 355.5 381.0625 C353.14567399 384.63159806 350.88934817 388.15862387 349 392 C347.69112542 393.35735142 346.35147138 394.68505488 345 396 C343.97043276 397.1589664 342.95076087 398.32675057 341.9375 399.5 C328.34126127 415.09653824 314.23196375 428.22877472 296.6875 439.375 C296.01759033 439.80425781 295.34768066 440.23351562 294.6574707 440.67578125 C290.86911958 443.04108014 287.337748 444.77601529 283 446 C283 446.66 283 447.32 283 448 C281.39850114 448.67305018 279.79368971 449.33822227 278.1875 450 C277.29417969 450.37125 276.40085937 450.7425 275.48046875 451.125 C273 452 273 452 270 452 C270 452.66 270 453.32 270 454 C256.4479447 458.7027463 243.05647116 463.0994408 229 466 C227.72326416 466.26804443 226.44652832 466.53608887 225.13110352 466.81225586 C215.40749917 468.74781165 206.06449536 469.41694823 196.16064453 469.28125 C193.86864759 469.24991315 191.57734737 469.24023114 189.28515625 469.234375 C162.73504825 469.09732752 162.73504825 469.09732752 154.64453125 465.95703125 C150.78343139 464.55973514 146.83454334 463.51842469 142.875 462.4375 C141.35154245 462.01960434 139.82810437 461.6016377 138.3046875 461.18359375 C137.21595337 460.88485352 137.21595337 460.88485352 136.10522461 460.58007812 C126.84445084 458.02834457 126.84445084 458.02834457 123.1875 456.625 C122.53136719 456.37363281 121.87523437 456.12226563 121.19921875 455.86328125 C117.12416463 454.26365965 113.05945953 452.63875723 109 451 C109 450.34 109 449.68 109 449 C108.26007813 448.87882812 107.52015625 448.75765625 106.7578125 448.6328125 C91.32061989 445.09056717 75.45646772 430.40537449 64.17578125 419.98828125 C62.42998626 418.39293179 60.66711898 416.90064268 58.8125 415.4375 C55.14084454 412.2553986 52.13544115 408.70114454 49 405 C48.17371094 404.07316406 47.34742188 403.14632813 46.49609375 402.19140625 C36.318526 390.68209097 28.47503232 377.88444957 21 364.5 C20.31454102 363.28171509 20.31454102 363.28171509 19.61523438 362.03881836 C17.12842462 357.49069684 15.21265611 353.05256468 13.68164062 348.1015625 C12.94857516 345.72763179 12.94857516 345.72763179 11.46875 342.46875 C9.80426879 338.53774118 8.61801987 334.61297149 7.5 330.5 C7.17854004 329.32957153 7.17854004 329.32957153 6.85058594 328.13549805 C0.25113021 303.62145643 -0.14960938 279.40550367 -0.11352539 254.18334961 C-0.11268324 251.40255201 -0.11335867 248.62175525 -0.1139679 245.84095764 C-0.11448876 239.88641341 -0.11138807 233.93188024 -0.10573006 227.97733879 C-0.0975552 219.3683868 -0.09499374 210.75944008 -0.09374207 202.15048463 C-0.09156089 188.17836368 -0.08492628 174.20624862 -0.07543945 160.23413086 C-0.06624107 146.67260771 -0.05918362 133.11108618 -0.05493164 119.54956055 C-0.05466364 118.70318065 -0.05439565 117.85680075 -0.05411953 116.98477298 C-0.05203974 110.36417217 -0.05008295 103.74357132 -0.04816496 97.12297046 C-0.03875475 64.74864157 -0.01863092 32.37432743 0 0 Z " fill="#181818" transform="translate(21,18)"/>
<path d="M0 0 C0.7729541 0.19255371 1.5459082 0.38510742 2.34228516 0.58349609 C16.53109696 4.13737928 31.05386836 8.21025323 43.703125 15.703125 C46.07305865 17.0412508 48.45505055 18.0433878 51 19 C50.37959098 22.43551494 49.07613995 24.52989577 47 27.3125 C44.05788939 31.40639022 41.37373547 35.59833068 38.8125 39.9375 C35.39697533 45.71648522 31.86151648 51.40404625 28.25 57.0625 C23.85644191 63.96103986 19.63321764 70.94260956 15.5 78 C10.00579453 87.37661345 4.28268339 96.58422176 -1.5625 105.74511719 C-3.94942044 109.48927432 -6.3223575 113.24205613 -8.6875 117 C-9.10990967 117.66499512 -9.53231934 118.32999023 -9.9675293 119.01513672 C-11.63084339 121.66101828 -13.00739068 124.02217204 -14 127 C-17.67978081 126.51581831 -20.95718829 125.66926308 -24.4375 124.4375 C-35.56672216 121.06197016 -47.47392204 122.23246342 -58 127 C-66.32321075 131.88583281 -74.92177594 138.50880916 -78 148 C-78.7425 149.11375 -78.7425 149.11375 -79.5 150.25 C-84.20786402 158.88108404 -84.94992308 171.67227399 -82.41699219 181.19091797 C-79.37420262 190.05933976 -74.64820767 200.05125304 -66.79296875 205.54296875 C-66.20128906 206.02378906 -65.60960937 206.50460938 -65 207 C-65 207.99 -65 208.98 -65 210 C-65.66 210 -66.32 210 -67 210 C-67.27763184 210.73412109 -67.55526367 211.46824219 -67.84130859 212.22460938 C-68.91047798 214.78556969 -70.10418267 217.03626229 -71.5390625 219.40625 C-72.03277344 220.22544922 -72.52648437 221.04464844 -73.03515625 221.88867188 C-73.55980469 222.75041016 -74.08445312 223.61214844 -74.625 224.5 C-75.16769531 225.39783203 -75.71039063 226.29566406 -76.26953125 227.22070312 C-79.77484619 233.01155001 -83.3159553 238.77962009 -86.87890625 244.53515625 C-89.07766195 248.10746359 -91.22255146 251.71150204 -93.37182617 255.3137207 C-97.38624021 262.04113497 -101.41409419 268.74576935 -105.6875 275.3125 C-109.53461967 281.22900895 -113.18100641 287.24370825 -116.79296875 293.3046875 C-118.96372738 296.946642 -121.16016739 300.57219501 -123.375 304.1875 C-124.00148438 305.21230469 -124.62796875 306.23710937 -125.2734375 307.29296875 C-126.75780723 309.62027243 -128.30600064 311.82274315 -130 314 C-140.24556661 312.49707252 -148.05841823 304.43546026 -155.28515625 297.55859375 C-157.36812135 295.59551154 -159.4535165 293.77996376 -161.6875 292 C-166.4622557 287.95183756 -170.15754793 282.90805868 -174 278 C-174.41717285 277.47422363 -174.8343457 276.94844727 -175.26416016 276.40673828 C-189.94027914 257.90981565 -200.52907244 237.7370109 -207 215 C-207.27360352 214.09846191 -207.54720703 213.19692383 -207.82910156 212.26806641 C-214.78329553 188.94760421 -216.88397643 159.66366897 -210 136 C-209.87251911 134.65795215 -209.76614643 133.31380686 -209.67578125 131.96875 C-209.0851104 126.32526277 -207.20396447 121.33604865 -205.1875 116.0625 C-204.84396484 115.13759766 -204.50042969 114.21269531 -204.14648438 113.25976562 C-203.11543277 110.4993329 -202.0629039 107.74831313 -201 105 C-200.64317139 104.07388916 -200.28634277 103.14777832 -199.91870117 102.19360352 C-199.57170166 101.30729248 -199.22470215 100.42098145 -198.8671875 99.5078125 C-198.55765137 98.71648926 -198.24811523 97.92516602 -197.92919922 97.10986328 C-196.63216812 94.16479161 -194.82163012 91.64430179 -193 89 C-192.5875 87.96875 -192.175 86.9375 -191.75 85.875 C-189.37679106 80.08792366 -185.58400384 75.08557787 -182 70 C-180.97132813 68.51693359 -180.97132813 68.51693359 -179.921875 67.00390625 C-164.91419177 46.40769761 -145.63295391 30.97002633 -123.88110352 18.11376953 C-122.28717473 17.1700313 -120.70300689 16.2098373 -119.12109375 15.24609375 C-116.81359294 13.89049015 -114.49144123 12.97226975 -112 12 C-111.05125 11.505 -110.1025 11.01 -109.125 10.5 C-105.78704564 8.89778191 -102.56152201 8.01290993 -99 7 C-97.64380861 6.5422937 -96.29100383 6.07445445 -94.94140625 5.59765625 C-86.03497888 2.46440104 -77.38500524 0.06897407 -68.0625 -1.45703125 C-65.09669507 -1.83323452 -65.09669507 -1.83323452 -63 -3 C-42.44658748 -6.06536946 -20.07296052 -5.24658333 0 0 Z " fill="#191919" transform="translate(547,20)"/>
<path d="M0 0 C0 45.21 0 90.42 0 137 C-33.39405791 148.13135264 -80.08847846 140.82531584 -111.24609375 125.484375 C-115.23528384 123.43863649 -119.13398384 121.2691834 -123 119 C-123.2986593 114.96589697 -122.72661109 113.02410095 -120.3515625 109.7734375 C-117.11507199 105.18319525 -114.23102528 100.45860862 -111.375 95.625 C-107.28344869 88.74910844 -103.10750001 81.93816454 -98.8125 75.1875 C-94.45333305 68.33436629 -90.21385312 61.42356058 -86.05859375 54.4453125 C-83.54614907 50.22795296 -80.96432161 46.05426208 -78.3828125 41.87890625 C-76.40324992 38.66720307 -74.44671664 35.44183661 -72.4921875 32.21484375 C-71.86658936 31.18294922 -71.24099121 30.15105469 -70.59643555 29.08789062 C-69.3410008 27.01599781 -68.08720949 24.94310813 -66.83520508 22.86914062 C-66.25407959 21.91072266 -65.6729541 20.95230469 -65.07421875 19.96484375 C-64.55432373 19.1049585 -64.03442871 18.24507324 -63.4987793 17.35913086 C-62.09507511 15.14965153 -60.6015522 13.06913249 -59 11 C-56.18970826 11.51096213 -53.52748176 12.14503605 -50.79296875 12.984375 C-37.25198184 16.61017994 -25.52267484 15.0642645 -13.125 8.625 C-9.53033563 6.49997741 -6.4510618 3.99071284 -3.41015625 1.13671875 C-2 0 -2 0 0 0 Z " fill="#1B1A1B" transform="translate(546,221)"/>
<path d="M0 0 C4.14136436 0.55883471 6.8975483 2.97535103 10.0625 5.5 C10.63613281 5.95068848 11.20976563 6.40137695 11.80078125 6.86572266 C13.53963241 8.23670293 15.2702271 9.61759333 17 11 C18.40572266 12.10988281 18.40572266 12.10988281 19.83984375 13.2421875 C38.45572127 28.16769283 52.07039779 44.32909671 64 65 C64.62003906 66.05574219 65.24007812 67.11148438 65.87890625 68.19921875 C68.89621556 73.50030603 71.19863477 78.80646057 73.140625 84.58984375 C73.93729753 86.99866687 73.93729753 86.99866687 75.109375 89.12890625 C76 91 76 91 76 94 C32.77 94 -10.46 94 -55 94 C-55 101.59 -55 109.18 -55 117 C-59.02768404 114.98615798 -61.25172256 113.53349956 -64 110 C-64.3765097 103.59933516 -60.77579939 97.97764535 -57 93 C-56.34 93 -55.68 93 -55 93 C-54.87866699 92.41621582 -54.75733398 91.83243164 -54.63232422 91.23095703 C-53.98344938 88.94160636 -53.13781637 87.31804307 -51.8828125 85.3046875 C-51.22901611 84.24628662 -51.22901611 84.24628662 -50.56201172 83.16650391 C-50.08779785 82.41030762 -49.61358398 81.65411133 -49.125 80.875 C-48.10926143 79.23444531 -47.0936394 77.59381846 -46.078125 75.953125 C-45.30178711 74.70499023 -45.30178711 74.70499023 -44.50976562 73.43164062 C-42.28005717 69.8404543 -40.07697988 66.23323003 -37.875 62.625 C-37.43679932 61.90868408 -36.99859863 61.19236816 -36.54711914 60.4543457 C-33.6688971 55.74648626 -30.80535194 51.02987998 -27.94921875 46.30859375 C-26.48728998 43.8930409 -25.02499149 41.47771219 -23.5625 39.0625 C-23.19838013 38.46099121 -22.83426025 37.85948242 -22.45910645 37.23974609 C-17.29561043 28.71518763 -12.06235296 20.23959383 -6.66625977 11.85961914 C-4.19534854 8.00108934 -1.96476517 4.15072906 0 0 Z " fill="#191819" transform="translate(602,43)"/>
<path d="M0 0 C8.92913696 -0.49377716 17.26987683 0.12797763 26.0625 1.75 C26.95412842 1.90694336 27.84575684 2.06388672 28.7644043 2.22558594 C36.51957076 3.75301878 41.73580254 7.0244245 47 13 C50.35881882 18.15818605 50.70978965 23.01038089 51 29 C51.08765625 30.11246094 51.1753125 31.22492188 51.265625 32.37109375 C51.6851162 41.07553609 50.32642556 47.0224956 45 54 C37.83642375 61.88716981 30.37466287 64.3127703 20 65 C16.12342383 65.10539544 12.25260425 65.09615077 8.375 65.0625 C7.37082031 65.05798828 6.36664062 65.05347656 5.33203125 65.04882812 C2.88795529 65.03718967 0.4440118 65.0208424 -2 65 C-2.13607236 50.22044881 -1.95260051 35.46123517 -1.5625 20.6875 C-1.54285187 19.88783813 -1.52320374 19.08817627 -1.50296021 18.26428223 C-1.44569899 15.971596 -1.38210793 13.67917691 -1.31640625 11.38671875 C-1.29968872 10.69916 -1.28297119 10.01160126 -1.26574707 9.3032074 C-1.16527248 6.07546122 -0.96555159 3.09300486 0 0 Z " fill="#221E1F" transform="translate(926,76)"/>
<path d="M0 0 C4.44862058 0.65495944 8.26073329 2.32946918 12.3125 4.1875 C18.73911865 7.07771469 25.22522979 9.66883308 31.85864258 12.0456543 C34.87249584 13.1380654 37.31385176 14.20923451 40 16 C40.1875 18.625 40.1875 18.625 40 21 C39.34 21 38.68 21 38 21 C37.505 23.475 37.505 23.475 37 26 C31.4266456 25.42837391 27.00015523 23.35155815 22 21 C20.43971515 20.28680049 18.87725066 19.57834752 17.3125 18.875 C16.62800781 18.56304687 15.94351562 18.25109375 15.23828125 17.9296875 C12.5466619 16.8117025 9.76500175 15.92166725 7 15 C5.68 20.28 4.36 25.56 3 31 C4.98 31.33 6.96 31.66 9 32 C11.39920544 32.94044578 13.77436757 33.94399234 16.125 35 C21.42221903 37.41836028 21.42221903 37.41836028 27 39 C26.44894091 42.9492568 25.61064629 46.34920174 24 50 C20.28061755 49.39343404 17.26391244 48.32125928 13.875 46.6875 C8.36108003 44.10683542 2.74979392 41.99074103 -3 40 C-3.309375 41.134375 -3.61875 42.26875 -3.9375 43.4375 C-5 47 -5 47 -6 48 C-6.36760731 50.32817964 -6.70241581 52.6618385 -7 55 C-5.63875 55.1546875 -5.63875 55.1546875 -4.25 55.3125 C-1 56 -1 56 0.8125 57.375 C3.57876727 59.4299414 6.33864313 60.1533622 9.60546875 61.171875 C13.26556764 62.43768408 16.57736488 64.19533784 20 66 C20.36629408 70.27343092 19.40814077 72.48812804 17 76 C8.50279855 74.47720404 0.7079107 70.93109225 -7.07421875 67.3046875 C-12.29294101 64.97751362 -17.64883063 62.99924452 -23 61 C-22.69096091 54.61319215 -21.43049254 50.41121168 -18.3984375 44.8203125 C-16.22528157 40.43757903 -14.75732466 35.83319101 -13.2109375 31.19921875 C-12.07287992 28.19254404 -10.67661698 25.72797625 -9 23 C-8.67 21.845 -8.34 20.69 -8 19.5 C-7 16 -7 16 -5.57421875 13.64453125 C-3.93055236 10.88333486 -2.87101253 8.21703586 -1.8125 5.1875 C-1.46832031 4.21167969 -1.12414062 3.23585938 -0.76953125 2.23046875 C-0.38861328 1.12638672 -0.38861328 1.12638672 0 0 Z " fill="#232021" transform="translate(1020,88)"/>
<path d="M0 0 C1.875 0.25 1.875 0.25 4 1 C5.0625 2.9375 5.0625 2.9375 6 5 C6.99 5.66 7.98 6.32 9 7 C8.02795121 13.22111223 5.80608287 18.74316798 2.625 24.125 C-0.28620265 29.1406865 -2.00743377 34.47256444 -3.7890625 39.9609375 C-4.95838573 42.89556161 -5.79288485 43.90874391 -8 46 C-9.2122949 48.48901793 -9.2122949 48.48901793 -10.1875 51.1875 C-10.53167969 52.08855469 -10.87585937 52.98960937 -11.23046875 53.91796875 C-11.48441406 54.60503906 -11.73835938 55.29210937 -12 56 C-10.845 55.443125 -9.69 54.88625 -8.5 54.3125 C-7.8503125 53.99925781 -7.200625 53.68601563 -6.53125 53.36328125 C-4.44208413 52.23809778 -2.48433095 51.05025546 -0.48828125 49.7734375 C4.95544149 46.33539707 10.63763265 43.34757442 16.3125 40.3125 C18.45512993 39.16407075 20.59708882 38.01438843 22.73828125 36.86328125 C23.67712158 36.36094971 24.61596191 35.85861816 25.58325195 35.34106445 C28.14216479 33.96394869 28.14216479 33.96394869 31 32 C33.3125 31.4375 33.3125 31.4375 36 32 C38.32245915 34.09788173 40.27892634 36.38586063 42 39 C42 39.66 42 40.32 42 41 C38.54515902 42.83997197 35.0855752 44.67083882 31.625 46.5 C30.64015625 47.02464844 29.6553125 47.54929688 28.640625 48.08984375 C27.69960937 48.58613281 26.75859375 49.08242187 25.7890625 49.59375 C24.91975098 50.05458984 24.05043945 50.51542969 23.15478516 50.99023438 C21 52 21 52 19 52 C19 52.66 19 53.32 19 54 C18.49855469 54.17273438 17.99710938 54.34546875 17.48046875 54.5234375 C6.9316762 58.441047 -3.31681916 63.91483852 -12.9140625 69.78125 C-15.54933107 71.32095748 -16.99784192 71.53884889 -20 71 C-22.125 69.0625 -22.125 69.0625 -24 67 C-24.99 66.67 -25.98 66.34 -27 66 C-26.72675663 57.80269896 -23.81374023 52.15701907 -20 45 C-18.93318954 42.68785161 -17.97010528 40.35596997 -17 38 C-14.60438031 32.29614359 -12.01893575 26.69196922 -9.40234375 21.0859375 C-7.59870931 17.11693692 -6.02693677 13.10373241 -4.5625 9 C-3.35936766 5.75890881 -1.90361518 2.90074695 0 0 Z " fill="#221F20" transform="translate(1094,124)"/>
<path d="M0 0 C8.62438973 -0.10893966 16.09283582 0.2172579 23 6 C28.42031272 13.03175705 28.61468865 19.32606014 28 28 C26.50306993 35.02795983 21.69028462 38.20647692 16 42 C11.8869238 42.83940331 7.93466092 43.04404927 3.75390625 43.0234375 C2.86131104 43.02005371 1.96871582 43.01666992 1.04907227 43.01318359 C0.37287842 43.00883301 -0.30331543 43.00448242 -1 43 C-1.11995 28.62629889 -0.94730645 14.34492627 0 0 Z " fill="#F5F5F5" transform="translate(937,87)"/>
<path d="M0 0 C0.99 0.495 0.99 0.495 2 1 C2 47.86 2 94.72 2 143 C39.29 143 76.58 143 115 143 C115 143.33 115 143.66 115 144 C84.02225205 144.56182762 53.04614185 145.09953288 22.0625 145.125 C20.44519989 145.12874634 20.44519989 145.12874634 18.79522705 145.13256836 C15.79183556 145.138348 12.7885483 145.13704725 9.78515625 145.1328125 C8.89972641 145.13479645 8.01429657 145.1367804 7.10203552 145.13882446 C1.11544155 145.11544155 1.11544155 145.11544155 0 144 C-0.09650437 142.13971966 -0.12187292 140.27572971 -0.12025452 138.41294861 C-0.12162918 137.19993576 -0.12300385 135.98692291 -0.12442017 134.7371521 C-0.12088056 133.38067603 -0.11724575 132.0242002 -0.11352539 130.66772461 C-0.11324352 129.24887596 -0.11340124 127.83002716 -0.1139679 126.41117859 C-0.11425589 122.54771199 -0.1083589 118.68427617 -0.10139394 114.82081676 C-0.09516067 110.78757427 -0.09455662 106.75433115 -0.09336853 102.72108459 C-0.09025514 95.07834532 -0.08204164 87.43562027 -0.07201904 79.79288727 C-0.06085816 71.09411981 -0.05534752 62.39535169 -0.05032361 53.69657886 C-0.03985903 35.79771116 -0.02225943 17.89885672 0 0 Z " fill="#C6C4C5" transform="translate(982,343)"/>
<path d="M0 0 C2 3 2 3 2 6 C-41.23 6 -84.46 6 -129 6 C-129 13.59 -129 21.18 -129 29 C-133.02768404 26.98615798 -135.25172256 25.53349956 -138 22 C-138.3765097 15.59933516 -134.77579939 9.97764535 -131 5 C-130.34 5 -129.68 5 -129 5 C-128.67 3.68 -128.34 2.36 -128 1 C-127.67 1.66 -127.34 2.32 -127 3 C-127.33 3.66 -127.66 4.32 -128 5 C-85.76 5 -43.52 5 0 5 C0 3.35 0 1.7 0 0 Z " fill="#968E8D" transform="translate(676,131)"/>
<path d="M0 0 C2 2 2 2 2.3125 5.4375 C2 9 2 9 0.9375 10.9375 C-2.01168691 12.55479605 -4.70867559 12.18630138 -8 12 C-10.05685131 7.64431487 -10.05685131 7.64431487 -9.8125 4.875 C-7.69627791 -0.00858945 -5.1849027 -0.55158539 0 0 Z " fill="#23191B" transform="translate(897,135)"/>
<path d="M0 0 C0.66 0 1.32 0 2 0 C2 5.94 2 11.88 2 18 C-3 16 -3 16 -6 14 C-5.62422289 7.86230717 -3.9580593 4.73036356 0 0 Z " fill="#51454A" transform="translate(544,139)"/>
<path d="M0 0 C0.99 0.33 1.98 0.66 3 1 C3.36629408 5.27343092 2.40814077 7.48812804 0 11 C-1.65 10.67 -3.3 10.34 -5 10 C-3.68 9.67 -2.36 9.34 -1 9 C-1 8.34 -1 7.68 -1 7 C-1.66 7 -2.32 7 -3 7 C-2.38722388 4.03824877 -1.74627478 2.61941217 0 0 Z " fill="#524F4D" transform="translate(1037,153)"/>
<path d="M0 0 C0 3.96 0 7.92 0 12 C-0.99 12 -1.98 12 -3 12 C-4.51754003 9.58978936 -5.02316906 8.31664378 -4.8125 5.4375 C-4.05908639 3.17725918 -2.83594062 0 0 0 Z " fill="#231920" transform="translate(545,142)"/>
<path d="M0 0 C0.76953125 1.671875 0.76953125 1.671875 1 4 C-0.80078125 6.578125 -0.80078125 6.578125 -3.3125 9.25 C-4.13363281 10.14203125 -4.95476563 11.0340625 -5.80078125 11.953125 C-8 14 -8 14 -10 14 C-8.43632643 10.47761953 -6.30504111 7.72876006 -3.875 4.75 C-3.15054688 3.85796875 -2.42609375 2.9659375 -1.6796875 2.046875 C-0.84824219 1.03367187 -0.84824219 1.03367187 0 0 Z " fill="#4B4A4B" transform="translate(859,256)"/>
<path d="M0 0 C1.13732426 3.40401948 0.83989957 5.77456664 0.0625 9.25 C-0.13214844 10.14203125 -0.32679688 11.0340625 -0.52734375 11.953125 C-0.68332031 12.62859375 -0.83929688 13.3040625 -1 14 C-2.5078125 12.71484375 -2.5078125 12.71484375 -4 11 C-3.83266624 6.39832147 -3.14032517 3.41339692 0 0 Z " fill="#373032" transform="translate(319,149)"/>
<path d="M0 0 C0.33 0 0.66 0 1 0 C1 7.26 1 14.52 1 22 C-0.32 21.34 -1.64 20.68 -3 20 C-2.67 19.34 -2.34 18.68 -2 18 C-1.34 18.33 -0.68 18.66 0 19 C0 12.73 0 6.46 0 0 Z " fill="#BBB2B5" transform="translate(546,138)"/>
<path d="M0 0 C0.33 0.99 0.66 1.98 1 3 C-0.11878383 4.17262904 -1.24523051 5.33795138 -2.375 6.5 C-3.00148438 7.1496875 -3.62796875 7.799375 -4.2734375 8.46875 C-6 10 -6 10 -8 10 C-6.34908222 5.70761377 -3.26245434 3.1206085 0 0 Z " fill="#464447" transform="translate(381,71)"/>
<path d="M0 0 C1 2 1 2 0.328125 4.12890625 C-0.02765625 4.93199219 -0.3834375 5.73507812 -0.75 6.5625 C-1.09546875 7.36816406 -1.4409375 8.17382812 -1.796875 9.00390625 C-3 11 -3 11 -6 12 C-4.43358249 7.69235185 -2.31663844 3.93828536 0 0 Z " fill="#575458" transform="translate(432,321)"/>
<path d="M0 0 C0.66 0 1.32 0 2 0 C1.34 4.29 0.68 8.58 0 13 C-0.33 13 -0.66 13 -1 13 C-1.22151549 11.20991533 -1.42682213 9.41781838 -1.625 7.625 C-1.74101562 6.62726563 -1.85703125 5.62953125 -1.9765625 4.6015625 C-1.98429687 3.74304688 -1.99203125 2.88453125 -2 2 C-1.34 1.34 -0.68 0.68 0 0 Z " fill="#393433" transform="translate(321,135)"/>
<path d="M0 0 C1.36682561 2.73365122 0.84683011 4.10666379 0 7 C-1.4375 8.8125 -1.4375 8.8125 -3 10 C-3.66 10 -4.32 10 -5 10 C-3.66511872 6.40608886 -2.03977277 3.24509304 0 0 Z " fill="#4E4A4E" transform="translate(442,305)"/>
<path d="M0 0 C0 3.93154432 -1.25327015 6.5065403 -3 10 C-3.99 10.33 -4.98 10.66 -6 11 C-4.54955729 6.89041233 -2.48889248 3.56741255 0 0 Z " fill="#605D62" transform="translate(560,113)"/>
<path d="M0 0 C-1.44077046 3.36179774 -3.24750021 5.59156268 -6 8 C-6.66 8 -7.32 8 -8 8 C-6.48291727 4.46014029 -4.24676932 0 0 0 Z " fill="#C4C4C4" transform="translate(481,153)"/>
<path d="M0 0 C0 3.75366417 -1.11420063 5.78715662 -3 9 C-3.99 9.33 -4.98 9.66 -6 10 C-4.6302836 6.00499382 -2.74277578 3.19990508 0 0 Z " fill="#525052" transform="translate(366,89)"/>
<path d="M0 0 C-1.28519565 2.86697492 -2.57129254 4.97607712 -5 7 C-5.66 7 -6.32 7 -7 7 C-3.86206897 0 -3.86206897 0 0 0 Z " fill="#C9C9C9" transform="translate(948,330)"/>
<path d="M0 0 C0.33 0.99 0.66 1.98 1 3 C2.65 2.67 4.3 2.34 6 2 C5.67 2.66 5.34 3.32 5 4 C2.6859378 4.73075648 0.35171131 5.40138258 -2 6 C-1.125 1.125 -1.125 1.125 0 0 Z " fill="#BAB9BA" transform="translate(1084,174)"/>
<path d="M0 0 C0.66 0.33 1.32 0.66 2 1 C1.34 2.32 0.68 3.64 0 5 C-0.66 5 -1.32 5 -2 5 C-2 5.99 -2 6.98 -2 8 C-2.66 8 -3.32 8 -4 8 C-2.87548273 5.0280615 -1.77706209 2.66559313 0 0 Z " fill="#4A494C" transform="translate(568,100)"/>
<path d="M0 0 C0.6875 1.75 0.6875 1.75 1 4 C-0.3125 6.25 -0.3125 6.25 -2 8 C-2.66 8 -3.32 8 -4 8 C-2.87548273 5.0280615 -1.77706209 2.66559313 0 0 Z " fill="#4F4E4F" transform="translate(485,235)"/>
<path d="M0 0 C0.66 0 1.32 0 2 0 C2 0.99 2 1.98 2 3 C1.34 3 0.68 3 0 3 C-0.33 4.32 -0.66 5.64 -1 7 C-1.66 6.67 -2.32 6.34 -3 6 C-1.125 1.125 -1.125 1.125 0 0 Z " fill="#615960" transform="translate(544,139)"/>
</svg>
